<svg xmlns="http://www.w3.org/2000/svg" width="32" height="32"><path data-name="Контур 116" d="M21.461 7.379h-10.92a3.165 3.165 0 00-3.162 3.162v10.92a3.165 3.165 0 003.161 3.162h10.921a3.165 3.165 0 003.161-3.162v-10.92a3.165 3.165 0 00-3.161-3.162zM16 21.679a5.676 5.676 0 115.677-5.677A5.683 5.683 0 0116 21.677zM21.859 11.5a1.343 1.343 0 111.343-1.343 1.345 1.345 0 01-1.342 1.341z" fill="#d8d3c6" fill-rule="evenodd"/><path data-name="Контур 117" d="M16 12.687A3.314 3.314 0 1019.314 16 3.318 3.318 0 0016 12.687z" fill="#d8d3c6" fill-rule="evenodd"/><path data-name="Контур 118" d="M0 0v32h32V0zm27.076 21.488a5.593 5.593 0 01-5.588 5.588H10.512a5.594 5.594 0 01-5.588-5.588V10.512a5.594 5.594 0 015.588-5.588h10.976a5.594 5.594 0 015.588 5.588z" fill="#d8d3c6" fill-rule="evenodd"/></svg>