<svg xmlns="http://www.w3.org/2000/svg" width="32" height="32"><path d="M32 32H0V0h32v32zm-15.488-8l.007.007c1.289 1.24 2.75 2.646 3.709 3.582a1.422 1.422 0 00.985.406 1.766 1.766 0 001.561-1.078 1.3 1.3 0 00-.32-1.469c-.029-.028-4.457-4.275-4.736-4.541a11.147 11.147 0 004.382-1.256c1.625-1.014 2.275-1.582 1.679-2.77a1.487 1.487 0 00-1.3-.8 2.282 2.282 0 00-1.355.531 8.563 8.563 0 01-9.244 0 2.272 2.272 0 00-1.354-.533 1.482 1.482 0 00-1.3.8c-.606 1.19.043 1.757 1.67 2.765a10.688 10.688 0 004.404 1.263c-.019.02-.392.378-1.961 1.888l-2.758 2.653a1.277 1.277 0 00-.332 1.453 1.765 1.765 0 001.567 1.089 1.412 1.412 0 00.977-.4l3.716-3.584zM16.5 4a6.076 6.076 0 106.318 6.078A6.209 6.209 0 0016.5 4zm0 9.063a3.049 3.049 0 01-3.1-2.985 2.926 2.926 0 01.91-2.121 3.14 3.14 0 012.19-.878 2.994 2.994 0 110 5.984z" fill="#d8d3c6"/></svg>