<svg xmlns="http://www.w3.org/2000/svg" width="32" height="32"><path d="M32 32H0V0h32v32zM18.715 18.8c.366 0 1.035.173 2.615 1.667.532.522.933.96 1.256 1.312.768.839 1.114 1.221 1.819 1.221h2.624a1.013 1.013 0 00.848-.313.857.857 0 00.061-.782c-.4-1.233-2.659-3.5-3.622-4.465a8.508 8.508 0 01-.4-.413c-.386-.487-.279-.7 0-1.146.029-.029 3.212-4.445 3.538-5.932a.758.758 0 00-.042-.69.891.891 0 00-.749-.26h-2.625a1.132 1.132 0 00-1.141.731A21.611 21.611 0 0119.671 15c-.625.614-.9.791-1.225.791-.169 0-.419-.2-.419-.739v-5.1c0-.683-.207-.949-.74-.949h-4.126a.625.625 0 00-.668.591.988.988 0 00.314.619 2.864 2.864 0 01.73 1.9v3.8c0 .838-.157.986-.486.986-.872 0-3.046-3.177-4.34-6.886-.246-.679-.487-1-1.185-1H4.9c-.8 0-.9.391-.9.732 0 .76.983 4.2 4.147 8.553a12.151 12.151 0 003.775 3.5A8.558 8.558 0 0016.154 23c1.74 0 1.875-.415 1.875-1 0-.442 0-.815-.006-1.145-.011-1.218-.015-1.723.185-1.925a.689.689 0 01.507-.13z" fill="#d8d3c6"/></svg>